<svg width="173" height="55" viewBox="0 0 173 55" fill="none" xmlns="http://www.w3.org/2000/svg">
<rect width="173" height="55" fill="none"/>
<path d="M12.48 54.1C12.2 54.1 11.93 54.07 11.67 54.01C11.41 53.9567 11.1833 53.89 10.99 53.81C10.8033 53.7233 10.66 53.6433 10.56 53.57V52.13H11.08L11.25 53.16C11.39 53.2667 11.5733 53.3567 11.8 53.43C12.0333 53.4967 12.25 53.53 12.45 53.53C12.9633 53.53 13.3333 53.4333 13.56 53.24C13.7867 53.04 13.9 52.7633 13.9 52.41C13.9 52.1567 13.8367 51.9533 13.71 51.8C13.5833 51.6467 13.4133 51.5133 13.2 51.4C12.9933 51.2867 12.76 51.18 12.5 51.08C12.2733 50.9933 12.0467 50.8967 11.82 50.79C11.5933 50.6833 11.3833 50.56 11.19 50.42C11.0033 50.28 10.8533 50.11 10.74 49.91C10.6267 49.7033 10.57 49.46 10.57 49.18C10.57 48.8133 10.6567 48.5 10.83 48.24C11.0033 47.9733 11.25 47.7667 11.57 47.62C11.89 47.4733 12.2667 47.4 12.7 47.4C12.92 47.4 13.1433 47.4133 13.37 47.44C13.6033 47.4667 13.8133 47.5 14 47.54C14.1867 47.58 14.32 47.6167 14.4 47.65V49.15H13.91L13.71 48.18C13.61 48.1267 13.4667 48.0767 13.28 48.03C13.0933 47.9833 12.8867 47.96 12.66 47.96C12.2267 47.96 11.9 48.0433 11.68 48.21C11.4667 48.3767 11.36 48.62 11.36 48.94C11.36 49.22 11.4333 49.4433 11.58 49.61C11.7333 49.77 11.93 49.9033 12.17 50.01C12.41 50.11 12.66 50.2133 12.92 50.32C13.2267 50.44 13.5133 50.5733 13.78 50.72C14.0467 50.86 14.2633 51.0433 14.43 51.27C14.5967 51.4967 14.68 51.7933 14.68 52.16C14.68 52.5133 14.6167 52.8167 14.49 53.07C14.3633 53.3167 14.1933 53.5167 13.98 53.67C13.7667 53.8167 13.53 53.9267 13.27 54C13.01 54.0667 12.7467 54.1 12.48 54.1ZM19.437 54.09C18.9436 54.09 18.537 53.9867 18.217 53.78C17.897 53.5667 17.6603 53.2767 17.507 52.91C17.3536 52.5433 17.277 52.13 17.277 51.67C17.277 51.1233 17.3703 50.6467 17.557 50.24C17.7503 49.8333 18.0136 49.52 18.347 49.3C18.687 49.0733 19.077 48.96 19.517 48.96C19.8103 48.96 20.0603 49.01 20.267 49.11C20.4736 49.21 20.6403 49.3467 20.767 49.52C20.9003 49.6933 20.997 49.89 21.057 50.11C21.1236 50.3233 21.157 50.5467 21.157 50.78C21.157 51.14 21.1236 51.38 21.057 51.5C20.9903 51.6133 20.8636 51.67 20.677 51.67H18.167C18.167 51.9833 18.217 52.27 18.317 52.53C18.417 52.79 18.5803 53 18.807 53.16C19.0403 53.3133 19.3503 53.39 19.737 53.39C20.1036 53.39 20.387 53.3533 20.587 53.28C20.7936 53.2067 20.9103 53.1633 20.937 53.15L21.077 53.43C21.057 53.45 20.977 53.5133 20.837 53.62C20.7036 53.7267 20.517 53.8333 20.277 53.94C20.0436 54.04 19.7636 54.09 19.437 54.09ZM18.177 51.21L20.317 51.13C20.337 51.01 20.347 50.8767 20.347 50.73C20.347 50.35 20.2803 50.0567 20.147 49.85C20.0136 49.6433 19.757 49.54 19.377 49.54C19.1036 49.54 18.877 49.6067 18.697 49.74C18.5236 49.8667 18.3936 50.0567 18.307 50.31C18.227 50.5567 18.1836 50.8567 18.177 51.21ZM25.7998 54.09C25.3065 54.09 24.8998 53.9867 24.5798 53.78C24.2598 53.5667 24.0232 53.2767 23.8698 52.91C23.7165 52.5433 23.6398 52.13 23.6398 51.67C23.6398 51.1233 23.7332 50.6467 23.9198 50.24C24.1132 49.8333 24.3765 49.52 24.7098 49.3C25.0498 49.0733 25.4398 48.96 25.8798 48.96C26.1732 48.96 26.4232 49.01 26.6298 49.11C26.8365 49.21 27.0032 49.3467 27.1298 49.52C27.2632 49.6933 27.3598 49.89 27.4198 50.11C27.4865 50.3233 27.5198 50.5467 27.5198 50.78C27.5198 51.14 27.4865 51.38 27.4198 51.5C27.3532 51.6133 27.2265 51.67 27.0398 51.67H24.5298C24.5298 51.9833 24.5798 52.27 24.6798 52.53C24.7798 52.79 24.9432 53 25.1698 53.16C25.4032 53.3133 25.7132 53.39 26.0998 53.39C26.4665 53.39 26.7498 53.3533 26.9498 53.28C27.1565 53.2067 27.2732 53.1633 27.2998 53.15L27.4398 53.43C27.4198 53.45 27.3398 53.5133 27.1998 53.62C27.0665 53.7267 26.8798 53.8333 26.6398 53.94C26.4065 54.04 26.1265 54.09 25.7998 54.09ZM24.5398 51.21L26.6798 51.13C26.6998 51.01 26.7098 50.8767 26.7098 50.73C26.7098 50.35 26.6432 50.0567 26.5098 49.85C26.3765 49.6433 26.1198 49.54 25.7398 49.54C25.4665 49.54 25.2398 49.6067 25.0598 49.74C24.8865 49.8667 24.7565 50.0567 24.6698 50.31C24.5898 50.5567 24.5465 50.8567 24.5398 51.21ZM35.7033 54.04C35.4166 54.04 35.1933 53.9933 35.0333 53.9C34.8799 53.8067 34.7733 53.6767 34.7133 53.51C34.6533 53.3367 34.6233 53.1433 34.6233 52.93V49.59H33.8433V49.16L34.6233 48.95L34.8633 47.91H35.4433V49.05H36.8533V49.33L36.7133 49.59H35.4433V52.86C35.4433 53.0667 35.4833 53.2033 35.5633 53.27C35.6499 53.33 35.7766 53.36 35.9433 53.36C36.1299 53.36 36.2999 53.3433 36.4533 53.31C36.6066 53.27 36.7033 53.2433 36.7433 53.23L36.8433 53.55C36.6833 53.6967 36.4966 53.8167 36.2833 53.91C36.0699 53.9967 35.8766 54.04 35.7033 54.04ZM39.4361 54V53.59L40.2461 53.45V47.78L39.4461 47.64V47.23L40.8361 47.01L41.0661 47.1V49.31L41.0461 49.39V49.45C41.1994 49.3633 41.3694 49.2833 41.5561 49.21C41.7428 49.1367 41.9294 49.08 42.1161 49.04C42.3028 48.9933 42.4761 48.97 42.6361 48.97C42.8694 48.97 43.0861 49.0133 43.2861 49.1C43.4861 49.18 43.6461 49.32 43.7661 49.52C43.8861 49.72 43.9461 49.9933 43.9461 50.34V53.45L44.7461 53.59V54H42.3561V53.59L43.1261 53.45V50.48C43.1261 50.26 43.0861 50.0933 43.0061 49.98C42.9328 49.86 42.8194 49.7767 42.6661 49.73C42.5128 49.6833 42.3161 49.66 42.0761 49.66C41.9361 49.66 41.7694 49.67 41.5761 49.69C41.3894 49.71 41.2194 49.74 41.0661 49.78V53.45L41.8461 53.59V54H39.4361ZM49.2592 54.09C48.7659 54.09 48.3592 53.9867 48.0392 53.78C47.7192 53.5667 47.4826 53.2767 47.3292 52.91C47.1759 52.5433 47.0992 52.13 47.0992 51.67C47.0992 51.1233 47.1926 50.6467 47.3792 50.24C47.5726 49.8333 47.8359 49.52 48.1692 49.3C48.5092 49.0733 48.8992 48.96 49.3392 48.96C49.6326 48.96 49.8826 49.01 50.0892 49.11C50.2959 49.21 50.4626 49.3467 50.5892 49.52C50.7226 49.6933 50.8192 49.89 50.8792 50.11C50.9459 50.3233 50.9792 50.5467 50.9792 50.78C50.9792 51.14 50.9459 51.38 50.8792 51.5C50.8126 51.6133 50.6859 51.67 50.4992 51.67H47.9892C47.9892 51.9833 48.0392 52.27 48.1392 52.53C48.2392 52.79 48.4026 53 48.6292 53.16C48.8626 53.3133 49.1726 53.39 49.5592 53.39C49.9259 53.39 50.2092 53.3533 50.4092 53.28C50.6159 53.2067 50.7326 53.1633 50.7592 53.15L50.8992 53.43C50.8792 53.45 50.7992 53.5133 50.6592 53.62C50.5259 53.7267 50.3392 53.8333 50.0992 53.94C49.8659 54.04 49.5859 54.09 49.2592 54.09ZM47.9992 51.21L50.1392 51.13C50.1592 51.01 50.1692 50.8767 50.1692 50.73C50.1692 50.35 50.1026 50.0567 49.9692 49.85C49.8359 49.6433 49.5792 49.54 49.1992 49.54C48.9259 49.54 48.6992 49.6067 48.5192 49.74C48.3459 49.8667 48.2159 50.0567 48.1292 50.31C48.0492 50.5567 48.0059 50.8567 47.9992 51.21ZM59.8627 54.09C59.6427 54.09 59.4527 54.06 59.2927 54C59.1327 53.9467 58.9993 53.8833 58.8927 53.81C58.7927 53.7367 58.7193 53.6833 58.6727 53.65H58.5927L58.3227 54.03H57.8927V47.8L57.0727 47.67V47.28L58.4427 47.01L58.7127 47.15V49.25L58.7027 49.41V49.48C58.7627 49.42 58.856 49.35 58.9827 49.27C59.1093 49.1833 59.266 49.11 59.4527 49.05C59.646 48.99 59.8627 48.96 60.1027 48.96C60.4627 48.96 60.7793 49.04 61.0527 49.2C61.3327 49.3533 61.5527 49.5967 61.7127 49.93C61.8727 50.2633 61.9527 50.7 61.9527 51.24C61.9527 51.8667 61.856 52.3933 61.6627 52.82C61.4693 53.24 61.2127 53.5567 60.8927 53.77C60.5727 53.9833 60.2293 54.09 59.8627 54.09ZM59.7227 53.47C59.996 53.47 60.2327 53.41 60.4327 53.29C60.6327 53.17 60.786 52.97 60.8927 52.69C60.9993 52.4033 61.0527 52.0167 61.0527 51.53C61.0527 51.1033 61.0093 50.7533 60.9227 50.48C60.8427 50.2 60.706 49.9967 60.5127 49.87C60.3193 49.7367 60.0627 49.67 59.7427 49.67C59.5227 49.67 59.316 49.6867 59.1227 49.72C58.936 49.7533 58.7993 49.7833 58.7127 49.81V53.28C58.806 53.3067 58.946 53.3467 59.1327 53.4C59.3193 53.4467 59.516 53.47 59.7227 53.47ZM66.4912 54.09C66.0246 54.09 65.6346 53.99 65.3212 53.79C65.0079 53.59 64.7712 53.3033 64.6112 52.93C64.4579 52.5567 64.3812 52.1133 64.3812 51.6C64.3812 51.24 64.4312 50.9033 64.5312 50.59C64.6379 50.27 64.7879 49.99 64.9812 49.75C65.1812 49.5033 65.4212 49.31 65.7012 49.17C65.9879 49.03 66.3079 48.96 66.6612 48.96C67.1412 48.96 67.5412 49.06 67.8612 49.26C68.1812 49.4533 68.4179 49.73 68.5712 50.09C68.7312 50.45 68.8112 50.8767 68.8112 51.37C68.8112 51.7567 68.7612 52.1167 68.6612 52.45C68.5679 52.7767 68.4246 53.0633 68.2312 53.31C68.0379 53.5567 67.7946 53.75 67.5012 53.89C67.2146 54.0233 66.8779 54.09 66.4912 54.09ZM66.6812 53.51C67.0012 53.51 67.2512 53.4333 67.4312 53.28C67.6112 53.12 67.7379 52.8933 67.8112 52.6C67.8846 52.3067 67.9212 51.9567 67.9212 51.55C67.9212 51.0833 67.8812 50.7033 67.8012 50.41C67.7212 50.11 67.5879 49.89 67.4012 49.75C67.2146 49.61 66.9512 49.54 66.6112 49.54C66.2379 49.54 65.9546 49.6167 65.7612 49.77C65.5679 49.9167 65.4379 50.14 65.3712 50.44C65.3112 50.7333 65.2812 51.1033 65.2812 51.55C65.2812 51.9633 65.3212 52.3167 65.4012 52.61C65.4812 52.9033 65.6212 53.1267 65.8212 53.28C66.0279 53.4333 66.3146 53.51 66.6812 53.51ZM73.362 54.09C72.8953 54.09 72.5053 53.99 72.192 53.79C71.8786 53.59 71.642 53.3033 71.482 52.93C71.3286 52.5567 71.252 52.1133 71.252 51.6C71.252 51.24 71.302 50.9033 71.402 50.59C71.5086 50.27 71.6586 49.99 71.852 49.75C72.052 49.5033 72.292 49.31 72.572 49.17C72.8586 49.03 73.1786 48.96 73.532 48.96C74.012 48.96 74.412 49.06 74.732 49.26C75.052 49.4533 75.2886 49.73 75.442 50.09C75.602 50.45 75.682 50.8767 75.682 51.37C75.682 51.7567 75.632 52.1167 75.532 52.45C75.4386 52.7767 75.2953 53.0633 75.102 53.31C74.9086 53.5567 74.6653 53.75 74.372 53.89C74.0853 54.0233 73.7486 54.09 73.362 54.09ZM73.552 53.51C73.872 53.51 74.122 53.4333 74.302 53.28C74.482 53.12 74.6086 52.8933 74.682 52.6C74.7553 52.3067 74.792 51.9567 74.792 51.55C74.792 51.0833 74.752 50.7033 74.672 50.41C74.592 50.11 74.4586 49.89 74.272 49.75C74.0853 49.61 73.822 49.54 73.482 49.54C73.1086 49.54 72.8253 49.6167 72.632 49.77C72.4386 49.9167 72.3086 50.14 72.242 50.44C72.182 50.7333 72.152 51.1033 72.152 51.55C72.152 51.9633 72.192 52.3167 72.272 52.61C72.352 52.9033 72.492 53.1267 72.692 53.28C72.8986 53.4333 73.1853 53.51 73.552 53.51ZM78.0627 54V53.59L78.8627 53.45V47.78L78.0627 47.64V47.23L79.4527 47.01L79.6827 47.1V51.05H80.2227L81.2527 49.73V49.59L80.7127 49.46V49.06H82.6327V49.47L82.0227 49.63L80.8727 51.1L82.2127 53.41L83.0227 53.59V54H81.4027V53.82C81.4027 53.72 81.3827 53.6367 81.3427 53.57L80.2127 51.58H79.6827V53.45L80.4627 53.59V54H78.0627ZM91.5609 54.1C91.2809 54.1 91.0042 54.0733 90.7309 54.02C90.4575 53.9667 90.2109 53.8733 89.9909 53.74C89.7709 53.6067 89.5942 53.4267 89.4609 53.2C89.3342 52.9667 89.2709 52.67 89.2709 52.31C89.2709 52.0433 89.3175 51.81 89.4109 51.61C89.5042 51.41 89.6175 51.24 89.7509 51.1C89.8909 50.9533 90.0309 50.8333 90.1709 50.74C90.3109 50.6467 90.4309 50.5767 90.5309 50.53C90.2909 50.2633 90.1009 50.01 89.9609 49.77C89.8209 49.53 89.7509 49.27 89.7509 48.99C89.7509 48.6967 89.8209 48.4333 89.9609 48.2C90.1009 47.96 90.3042 47.7667 90.5709 47.62C90.8442 47.4733 91.1809 47.4 91.5809 47.4C91.8075 47.4 92.0142 47.4167 92.2009 47.45C92.3942 47.4833 92.5642 47.5233 92.7109 47.57C92.8575 47.61 92.9675 47.6467 93.0409 47.68V49.16H92.5509L92.3509 48.14C92.3509 48.14 92.2809 48.1133 92.1409 48.06C92.0009 48.0067 91.7842 47.98 91.4909 47.98C91.1242 47.98 90.8709 48.06 90.7309 48.22C90.5909 48.38 90.5209 48.6 90.5209 48.88C90.5209 49.0267 90.5409 49.1567 90.5809 49.27C90.6275 49.3767 90.7075 49.4967 90.8209 49.63C90.9342 49.7567 91.0909 49.9267 91.2909 50.14L93.4709 52.4C93.5642 52.18 93.6109 51.9233 93.6109 51.63C93.6109 51.3967 93.5975 51.21 93.5709 51.07C93.5442 50.9233 93.5209 50.8267 93.5009 50.78L92.6709 50.62V50.17H94.0309C94.0975 50.37 94.1442 50.58 94.1709 50.8C94.2042 51.02 94.2209 51.2933 94.2209 51.62C94.2209 51.82 94.1942 52.0267 94.1409 52.24C94.0875 52.4533 94.0042 52.6533 93.8909 52.84L94.4409 53.4L95.2109 53.57V54H94.3509C94.2442 54 94.1275 53.98 94.0009 53.94C93.8809 53.8933 93.7675 53.82 93.6609 53.72L93.3909 53.45C93.1709 53.6433 92.9075 53.8 92.6009 53.92C92.2942 54.04 91.9475 54.1 91.5609 54.1ZM91.6909 53.48C91.9509 53.48 92.1909 53.4433 92.4109 53.37C92.6375 53.2967 92.8342 53.19 93.0009 53.05L90.8409 50.84C90.7609 50.8867 90.6675 50.9667 90.5609 51.08C90.4542 51.1867 90.3575 51.33 90.2709 51.51C90.1909 51.6833 90.1509 51.9033 90.1509 52.17C90.1509 52.45 90.1942 52.69 90.2809 52.89C90.3742 53.0833 90.5309 53.23 90.7509 53.33C90.9709 53.43 91.2842 53.48 91.6909 53.48ZM102.526 54.07C102.186 54.07 101.913 54.0133 101.706 53.9C101.506 53.7867 101.359 53.6367 101.266 53.45C101.179 53.2567 101.136 53.05 101.136 52.83C101.136 52.55 101.199 52.3067 101.326 52.1C101.459 51.8933 101.659 51.7233 101.926 51.59C102.193 51.4567 102.526 51.3667 102.926 51.32L103.826 51.19V50.44C103.826 50.2467 103.786 50.0867 103.706 49.96C103.633 49.8333 103.523 49.7433 103.376 49.69C103.236 49.63 103.059 49.6 102.846 49.6C102.679 49.6 102.539 49.6133 102.426 49.64C102.313 49.66 102.246 49.6733 102.226 49.68L102.076 50.6C102.069 50.6067 102.043 50.62 101.996 50.64C101.949 50.66 101.869 50.67 101.756 50.67C101.643 50.67 101.536 50.63 101.436 50.55C101.343 50.4633 101.296 50.35 101.296 50.21C101.296 50.0033 101.373 49.82 101.526 49.66C101.686 49.5 101.879 49.37 102.106 49.27C102.333 49.1633 102.559 49.0867 102.786 49.04C103.013 48.9867 103.196 48.96 103.336 48.96C103.623 48.96 103.863 49.0133 104.056 49.12C104.249 49.22 104.396 49.3567 104.496 49.53C104.596 49.7033 104.646 49.8967 104.646 50.11V53.32L105.356 53.46V53.84C105.336 53.8467 105.283 53.8667 105.196 53.9C105.116 53.9333 105.006 53.9667 104.866 54C104.733 54.0267 104.576 54.04 104.396 54.04C104.209 54.04 104.079 53.99 104.006 53.89C103.939 53.79 103.899 53.6867 103.886 53.58H103.846C103.746 53.66 103.626 53.7367 103.486 53.81C103.353 53.8833 103.206 53.9467 103.046 54C102.886 54.0467 102.713 54.07 102.526 54.07ZM102.926 53.44C103.179 53.44 103.393 53.41 103.566 53.35C103.739 53.2833 103.826 53.25 103.826 53.25V51.67C103.413 51.6967 103.073 51.75 102.806 51.83C102.539 51.91 102.339 52.02 102.206 52.16C102.079 52.2933 102.016 52.4667 102.016 52.68C102.016 53.1867 102.319 53.44 102.926 53.44ZM109.561 54.09C109.241 54.09 108.937 54.0133 108.651 53.86C108.371 53.7067 108.144 53.4633 107.971 53.13C107.797 52.79 107.711 52.3533 107.711 51.82C107.711 51.2867 107.777 50.8367 107.911 50.47C108.044 50.1033 108.217 49.81 108.431 49.59C108.651 49.37 108.884 49.21 109.131 49.11C109.384 49.01 109.624 48.96 109.851 48.96C110.151 48.96 110.391 49.0133 110.571 49.12C110.751 49.22 110.877 49.3033 110.951 49.37V49.23L110.941 49.08V47.8L110.111 47.57V47.18L111.481 47.01L111.761 47.15V53.3L112.461 53.45V53.84L111.131 54.04L111.001 53.52L110.961 53.51C110.907 53.57 110.814 53.6467 110.681 53.74C110.554 53.8333 110.397 53.9167 110.211 53.99C110.024 54.0567 109.807 54.09 109.561 54.09ZM109.851 53.41C110.077 53.41 110.291 53.3767 110.491 53.31C110.691 53.2433 110.841 53.1833 110.941 53.13V49.74C110.854 49.7067 110.724 49.6733 110.551 49.64C110.384 49.6067 110.201 49.59 110.001 49.59C109.727 49.59 109.484 49.6467 109.271 49.76C109.057 49.8667 108.891 50.06 108.771 50.34C108.657 50.6133 108.601 51 108.601 51.5C108.601 51.9267 108.637 52.2833 108.711 52.57C108.791 52.85 108.921 53.06 109.101 53.2C109.287 53.34 109.537 53.41 109.851 53.41ZM116.685 54.09C116.365 54.09 116.062 54.0133 115.775 53.86C115.495 53.7067 115.268 53.4633 115.095 53.13C114.922 52.79 114.835 52.3533 114.835 51.82C114.835 51.2867 114.902 50.8367 115.035 50.47C115.168 50.1033 115.342 49.81 115.555 49.59C115.775 49.37 116.008 49.21 116.255 49.11C116.508 49.01 116.748 48.96 116.975 48.96C117.275 48.96 117.515 49.0133 117.695 49.12C117.875 49.22 118.002 49.3033 118.075 49.37V49.23L118.065 49.08V47.8L117.235 47.57V47.18L118.605 47.01L118.885 47.15V53.3L119.585 53.45V53.84L118.255 54.04L118.125 53.52L118.085 53.51C118.032 53.57 117.938 53.6467 117.805 53.74C117.678 53.8333 117.522 53.9167 117.335 53.99C117.148 54.0567 116.932 54.09 116.685 54.09ZM116.975 53.41C117.202 53.41 117.415 53.3767 117.615 53.31C117.815 53.2433 117.965 53.1833 118.065 53.13V49.74C117.978 49.7067 117.848 49.6733 117.675 49.64C117.508 49.6067 117.325 49.59 117.125 49.59C116.852 49.59 116.608 49.6467 116.395 49.76C116.182 49.8667 116.015 50.06 115.895 50.34C115.782 50.6133 115.725 51 115.725 51.5C115.725 51.9267 115.762 52.2833 115.835 52.57C115.915 52.85 116.045 53.06 116.225 53.2C116.412 53.34 116.662 53.41 116.975 53.41ZM127.611 54.04C127.325 54.04 127.101 53.9933 126.941 53.9C126.788 53.8067 126.681 53.6767 126.621 53.51C126.561 53.3367 126.531 53.1433 126.531 52.93V49.59H125.751V49.16L126.531 48.95L126.771 47.91H127.351V49.05H128.761V49.33L128.621 49.59H127.351V52.86C127.351 53.0667 127.391 53.2033 127.471 53.27C127.558 53.33 127.685 53.36 127.851 53.36C128.038 53.36 128.208 53.3433 128.361 53.31C128.515 53.27 128.611 53.2433 128.651 53.23L128.751 53.55C128.591 53.6967 128.405 53.8167 128.191 53.91C127.978 53.9967 127.785 54.04 127.611 54.04ZM133.26 54.09C132.794 54.09 132.404 53.99 132.09 53.79C131.777 53.59 131.54 53.3033 131.38 52.93C131.227 52.5567 131.15 52.1133 131.15 51.6C131.15 51.24 131.2 50.9033 131.3 50.59C131.407 50.27 131.557 49.99 131.75 49.75C131.95 49.5033 132.19 49.31 132.47 49.17C132.757 49.03 133.077 48.96 133.43 48.96C133.91 48.96 134.31 49.06 134.63 49.26C134.95 49.4533 135.187 49.73 135.34 50.09C135.5 50.45 135.58 50.8767 135.58 51.37C135.58 51.7567 135.53 52.1167 135.43 52.45C135.337 52.7767 135.194 53.0633 135 53.31C134.807 53.5567 134.564 53.75 134.27 53.89C133.984 54.0233 133.647 54.09 133.26 54.09ZM133.45 53.51C133.77 53.51 134.02 53.4333 134.2 53.28C134.38 53.12 134.507 52.8933 134.58 52.6C134.654 52.3067 134.69 51.9567 134.69 51.55C134.69 51.0833 134.65 50.7033 134.57 50.41C134.49 50.11 134.357 49.89 134.17 49.75C133.984 49.61 133.72 49.54 133.38 49.54C133.007 49.54 132.724 49.6167 132.53 49.77C132.337 49.9167 132.207 50.14 132.14 50.44C132.08 50.7333 132.05 51.1033 132.05 51.55C132.05 51.9633 132.09 52.3167 132.17 52.61C132.25 52.9033 132.39 53.1267 132.59 53.28C132.797 53.4333 133.084 53.51 133.45 53.51ZM144.073 54.09C143.659 54.09 143.289 54 142.963 53.82C142.643 53.64 142.389 53.37 142.203 53.01C142.023 52.65 141.933 52.2 141.933 51.66C141.933 51.3067 141.979 50.9667 142.073 50.64C142.173 50.3133 142.316 50.0233 142.503 49.77C142.696 49.5167 142.933 49.32 143.213 49.18C143.499 49.0333 143.826 48.96 144.193 48.96C144.526 48.96 144.806 49.02 145.033 49.14C145.259 49.2533 145.429 49.4067 145.543 49.6C145.663 49.7867 145.723 49.99 145.723 50.21C145.723 50.29 145.703 50.3667 145.663 50.44C145.623 50.5133 145.566 50.57 145.493 50.61C145.419 50.65 145.329 50.67 145.223 50.67C145.149 50.67 145.086 50.6633 145.033 50.65C144.986 50.63 144.953 50.6133 144.933 50.6L144.783 49.67C144.756 49.65 144.683 49.6233 144.563 49.59C144.449 49.5567 144.309 49.54 144.143 49.54C143.803 49.54 143.536 49.6133 143.343 49.76C143.156 49.9 143.023 50.1167 142.943 50.41C142.869 50.7033 142.833 51.08 142.833 51.54C142.833 51.9933 142.889 52.3567 143.003 52.63C143.123 52.8967 143.303 53.09 143.543 53.21C143.783 53.33 144.079 53.39 144.433 53.39C144.746 53.39 144.999 53.36 145.193 53.3C145.393 53.24 145.509 53.2 145.543 53.18L145.673 53.48C145.653 53.5 145.579 53.56 145.453 53.66C145.333 53.76 145.156 53.8567 144.923 53.95C144.696 54.0433 144.413 54.09 144.073 54.09ZM149.747 54.07C149.407 54.07 149.134 54.0133 148.927 53.9C148.727 53.7867 148.581 53.6367 148.487 53.45C148.401 53.2567 148.357 53.05 148.357 52.83C148.357 52.55 148.421 52.3067 148.547 52.1C148.681 51.8933 148.881 51.7233 149.147 51.59C149.414 51.4567 149.747 51.3667 150.147 51.32L151.047 51.19V50.44C151.047 50.2467 151.007 50.0867 150.927 49.96C150.854 49.8333 150.744 49.7433 150.597 49.69C150.457 49.63 150.281 49.6 150.067 49.6C149.901 49.6 149.761 49.6133 149.647 49.64C149.534 49.66 149.467 49.6733 149.447 49.68L149.297 50.6C149.291 50.6067 149.264 50.62 149.217 50.64C149.171 50.66 149.091 50.67 148.977 50.67C148.864 50.67 148.757 50.63 148.657 50.55C148.564 50.4633 148.517 50.35 148.517 50.21C148.517 50.0033 148.594 49.82 148.747 49.66C148.907 49.5 149.101 49.37 149.327 49.27C149.554 49.1633 149.781 49.0867 150.007 49.04C150.234 48.9867 150.417 48.96 150.557 48.96C150.844 48.96 151.084 49.0133 151.277 49.12C151.471 49.22 151.617 49.3567 151.717 49.53C151.817 49.7033 151.867 49.8967 151.867 50.11V53.32L152.577 53.46V53.84C152.557 53.8467 152.504 53.8667 152.417 53.9C152.337 53.9333 152.227 53.9667 152.087 54C151.954 54.0267 151.797 54.04 151.617 54.04C151.431 54.04 151.301 53.99 151.227 53.89C151.161 53.79 151.121 53.6867 151.107 53.58H151.067C150.967 53.66 150.847 53.7367 150.707 53.81C150.574 53.8833 150.427 53.9467 150.267 54C150.107 54.0467 149.934 54.07 149.747 54.07ZM150.147 53.44C150.401 53.44 150.614 53.41 150.787 53.35C150.961 53.2833 151.047 53.25 151.047 53.25V51.67C150.634 51.6967 150.294 51.75 150.027 51.83C149.761 51.91 149.561 52.02 149.427 52.16C149.301 52.2933 149.237 52.4667 149.237 52.68C149.237 53.1867 149.541 53.44 150.147 53.44ZM155.042 54V53.59L155.722 53.45V49.84L154.942 49.7V49.29L156.382 49.01L156.552 49.57C156.585 49.5367 156.662 49.4733 156.782 49.38C156.909 49.28 157.052 49.1867 157.212 49.1C157.379 49.0067 157.532 48.96 157.672 48.96C157.812 48.96 157.919 49.0067 157.992 49.1C158.072 49.1867 158.112 49.3033 158.112 49.45C158.112 49.5633 158.085 49.6633 158.032 49.75C157.985 49.8367 157.912 49.9133 157.812 49.98L157.392 49.87C157.312 49.85 157.242 49.8367 157.182 49.83C157.122 49.8167 157.055 49.81 156.982 49.81C156.909 49.81 156.832 49.8167 156.752 49.83C156.672 49.8433 156.602 49.8633 156.542 49.89V53.44L157.462 53.57V54H155.042ZM162.136 54.04C161.85 54.04 161.626 53.9933 161.466 53.9C161.313 53.8067 161.206 53.6767 161.146 53.51C161.086 53.3367 161.056 53.1433 161.056 52.93V49.59H160.276V49.16L161.056 48.95L161.296 47.91H161.876V49.05H163.286V49.33L163.146 49.59H161.876V52.86C161.876 53.0667 161.916 53.2033 161.996 53.27C162.083 53.33 162.21 53.36 162.376 53.36C162.563 53.36 162.733 53.3433 162.886 53.31C163.04 53.27 163.136 53.2433 163.176 53.23L163.276 53.55C163.116 53.6967 162.93 53.8167 162.716 53.91C162.503 53.9967 162.31 54.04 162.136 54.04Z" fill="#16495F"/>
<line y1="42.5" x2="173" y2="42.5" stroke="#16495F"/>
<path d="M14.408 3.848C13.416 4.264 12.92 4.888 12.92 5.72C12.92 6.712 13.704 8.376 15.272 10.712L22.04 20.6C22.392 21.112 22.952 21.96 23.72 23.144C24.52 24.296 25.16 25.256 25.64 26.024C25.736 26.216 25.944 26.648 26.264 27.32C26.584 27.96 26.808 28.52 26.936 29C27.032 29.48 27.08 29.928 27.08 30.344C26.92 33.96 22.984 35.768 15.272 35.768C13.512 35.768 10.568 35.624 6.44 35.336C6.248 34.888 6.152 34.424 6.152 33.944C6.152 33.592 6.232 33.176 6.392 32.696C8.664 33.016 10.904 33.176 13.112 33.176C16.216 33.176 18.296 33 19.352 32.648C20.344 32.328 20.84 31.592 20.84 30.44C20.84 29.544 20.088 27.928 18.584 25.592L8.6 10.712C7.48 8.952 6.936 7.288 6.968 5.72C6.968 2.392 11.08 0.727998 19.304 0.727998C21.032 0.727998 23.144 0.855998 25.64 1.112C25.736 1.496 25.784 1.88 25.784 2.264C25.784 2.808 25.688 3.32 25.496 3.8C23.864 3.416 21.896 3.224 19.592 3.224C17.096 3.224 15.368 3.432 14.408 3.848ZM43.8466 19.496C43.8466 20.2 43.7506 20.984 43.5586 21.848L33.7666 22.424C33.5106 21.56 33.3826 20.776 33.3826 20.072C33.3826 19.4 33.4786 18.68 33.6706 17.912L43.4626 17.336C43.7186 18.168 43.8466 18.888 43.8466 19.496ZM83.6278 3.944C81.8358 3.944 79.3238 4.472 76.0918 5.528V30.44C76.0918 32.2 76.2678 33.08 76.6198 33.08L79.6438 32.984C79.7718 33.208 79.8358 33.512 79.8358 33.896C79.8358 34.152 79.7878 34.424 79.6918 34.712C77.5798 35.32 75.5318 35.624 73.5478 35.624C72.5238 35.624 71.7878 35.576 71.3398 35.48C70.9238 35.416 70.6358 35.256 70.4758 35C70.3478 34.712 70.2998 34.232 70.3318 33.56V7.064C70.3318 6.2 70.2198 5.544 69.9958 5.096C69.7718 4.648 69.3718 4.344 68.7958 4.184C68.2518 4.024 67.4358 3.944 66.3478 3.944C64.5558 3.944 62.0438 4.472 58.8118 5.528V30.44C58.8118 32.2 58.9878 33.08 59.3398 33.08L62.3638 32.984C62.4918 33.208 62.5558 33.512 62.5558 33.896C62.5558 34.152 62.5078 34.424 62.4118 34.712C60.2998 35.32 58.2518 35.624 56.2678 35.624C55.2438 35.624 54.5078 35.576 54.0598 35.48C53.6438 35.416 53.3558 35.256 53.1958 35C53.0678 34.712 53.0198 34.232 53.0518 33.56V5.96C53.0518 4.2 52.8758 3.32 52.5238 3.32L49.4998 3.416C49.3718 3.192 49.3078 2.888 49.3078 2.504C49.3078 2.248 49.3558 1.976 49.4518 1.688C51.5638 1.08 53.6118 0.775997 55.5958 0.775997C56.6198 0.775997 57.3398 0.823997 57.7558 0.919998C58.2038 0.983999 58.4918 1.16 58.6198 1.448C58.7798 1.704 58.8438 2.168 58.8118 2.84V3.128C62.8438 1.56 66.9558 0.775997 71.1478 0.775997C73.9318 0.775997 75.5318 1.592 75.9478 3.224C80.1398 1.624 84.2198 0.807999 88.1878 0.775997C89.9798 0.775997 91.2918 1.064 92.1238 1.64C92.9558 2.216 93.3718 3.144 93.3718 4.424V30.44C93.3718 32.2 93.5478 33.08 93.8998 33.08L96.9237 32.984C97.0518 33.208 97.1158 33.512 97.1158 33.896C97.1158 34.152 97.0678 34.424 96.9718 34.712C94.8598 35.32 92.8118 35.624 90.8278 35.624C89.8038 35.624 89.0678 35.576 88.6198 35.48C88.2038 35.416 87.9158 35.256 87.7558 35C87.6278 34.712 87.5798 34.232 87.6118 33.56V7.064C87.6118 6.2 87.4998 5.544 87.2758 5.096C87.0518 4.648 86.6518 4.344 86.0758 4.184C85.5318 4.024 84.7158 3.944 83.6278 3.944ZM125.746 33.896C125.746 34.152 125.698 34.424 125.602 34.712C123.554 35.32 121.394 35.624 119.122 35.624C118.258 35.624 117.618 35.576 117.202 35.48C116.818 35.416 116.562 35.272 116.434 35.048C116.306 34.856 116.242 34.52 116.242 34.04C112.562 35.096 109.394 35.624 106.738 35.624C104.978 35.624 103.73 35.352 102.994 34.808C102.258 34.264 101.89 33.32 101.89 31.976V25.256C101.89 23.912 102.226 22.872 102.898 22.136C103.57 21.368 104.642 20.824 106.114 20.504C109.666 19.96 113.042 19.608 116.242 19.448V15.704C116.242 14.488 116.002 13.688 115.522 13.304C115.074 12.92 114.13 12.728 112.69 12.728C111.794 12.728 110.002 12.952 107.314 13.4C104.978 13.848 103.442 14.184 102.706 14.408C102.546 14.024 102.466 13.624 102.466 13.208C102.466 12.792 102.53 12.472 102.658 12.248C106.722 10.968 111.426 10.328 116.77 10.328C118.498 10.328 119.746 10.6 120.514 11.144C121.314 11.688 121.714 12.584 121.714 13.832V30.44C121.714 32.2 121.89 33.08 122.242 33.08L125.554 32.984C125.682 33.208 125.746 33.512 125.746 33.896ZM110.386 32.936C111.89 32.936 113.842 32.584 116.242 31.88V21.608C114.482 21.672 112.818 21.848 111.25 22.136C109.65 22.424 108.562 22.808 107.986 23.288C107.57 23.608 107.362 24.328 107.362 25.448V30.776C107.362 32.216 108.37 32.936 110.386 32.936ZM132.317 15.512C132.317 13.752 132.141 12.872 131.789 12.872L128.477 12.968C128.349 12.744 128.285 12.44 128.285 12.056C128.285 11.8 128.333 11.528 128.429 11.24C130.541 10.632 132.701 10.328 134.909 10.328C135.869 10.328 136.541 10.376 136.925 10.472C137.309 10.536 137.549 10.712 137.645 11C137.773 11.256 137.821 11.72 137.789 12.392C140.957 11.016 143.213 10.328 144.557 10.328C146.317 10.328 147.565 10.616 148.301 11.192C149.037 11.736 149.405 12.664 149.405 13.976V18.488C149.405 18.936 149.149 19.256 148.637 19.448C147.421 19.8 146.125 19.976 144.749 19.976C144.205 19.976 143.933 19.704 143.933 19.16V15.176C143.933 13.992 143.309 13.4 142.061 13.4C141.069 13.4 139.645 13.784 137.789 14.552V30.44C137.789 32.2 137.965 33.08 138.317 33.08L141.629 32.984C141.757 33.208 141.821 33.512 141.821 33.896C141.821 34.152 141.773 34.424 141.677 34.712C139.565 35.32 137.405 35.624 135.197 35.624C134.237 35.624 133.565 35.576 133.181 35.48C132.797 35.416 132.541 35.256 132.413 35C132.317 34.712 132.285 34.232 132.317 33.56V15.512ZM166.527 33.896C166.527 34.152 166.479 34.424 166.383 34.712C164.271 35.32 162.111 35.624 159.903 35.624C158.943 35.624 158.271 35.576 157.887 35.48C157.503 35.416 157.247 35.256 157.119 35C157.023 34.712 156.991 34.232 157.023 33.56V13.16L153.519 13.4C153.359 12.856 153.279 12.456 153.279 12.2C153.279 11.784 153.343 11.464 153.471 11.24L157.023 11V3.752C157.023 3.304 157.279 2.984 157.791 2.792C159.007 2.44 160.303 2.264 161.679 2.264C162.223 2.264 162.495 2.536 162.495 3.08V10.664L166.287 10.376C166.447 10.92 166.527 11.32 166.527 11.576C166.527 11.992 166.463 12.312 166.335 12.536L162.495 12.824V30.44C162.495 32.2 162.671 33.08 163.023 33.08L166.335 32.984C166.463 33.208 166.527 33.512 166.527 33.896Z" fill="#16495F"/>
</svg>
